<?xml version="1.0" encoding="utf-8"?>
<!-- Generator: Adobe Illustrator 17.1.0, SVG Export Plug-In . SVG Version: 6.00 Build 0)  -->
<!DOCTYPE svg PUBLIC "-//W3C//DTD SVG 1.1//EN" "http://www.w3.org/Graphics/SVG/1.1/DTD/svg11.dtd">
<svg version="1.1" id="Layer_1" xmlns="http://www.w3.org/2000/svg" xmlns:xlink="http://www.w3.org/1999/xlink" x="0px" y="0px"
	 viewBox="0 0 1000 562" enable-background="new 0 0 1000 562" xml:space="preserve">
<g>
	<g>
		<g>
			<path fill="#945609" d="M617.5,24.6c-4.8-8.9-14.1-14.4-24.1-14.4c0,0,0,0,0,0l-186.6,0.1c-9.2,0-17.8,4.7-22.9,12.4
				c-0.2,0.3-0.4,0.7-0.7,1L186.5,351.5c-5.1,8.5-5.2,19-0.3,27.6c4.9,8.6,14,13.9,23.9,13.9h186.6c9.6,0,18.6-5.1,23.5-13.3
				l61.6-102.6c-18.6-4.1-35-14.2-47-28.3L381,338.2H258.4L422.3,65L545,65l-26.6,44.4c18.6,4.1,35,14.2,47,28.2l51.2-85.4
				C621.8,43.9,622.2,33.3,617.5,24.6z"/>
			<path fill="#333333" d="M813.5,351.5L642.1,65.4c-0.3,0.6-0.7,1.2-1.1,1.8l-30.9,51.5l131.5,219.4H618.9l-69.7-116.1
				c5-8.5,7.8-18.3,7.8-28.9c0-31.5-25.6-57.1-57.1-57.1s-57.1,25.6-57.1,57.1s25.6,57.1,57.1,57.1c0.8,0,1.5,0,2.3-0.1l1.3,2.2
				l13.2,21.9l63.2,105.3c4.9,8.2,13.9,13.3,23.5,13.3H790c9.9,0,19-5.3,23.9-13.9C818.7,370.5,818.6,360,813.5,351.5z"/>
		</g>
	</g>
	<g>
		<g>
			<path fill="#333333" d="M58.7,489.1v9.7c-6.7-3.3-12.9-5-18.6-5c-7.3,0-13.4,2.3-18.4,7s-7.5,10.5-7.5,17.3
				c0,7,2.5,12.8,7.6,17.4s11.5,7,19.1,7c5.6,0,11.5-1.7,17.7-5.2v9.8c-5.7,3-11.8,4.5-18.4,4.5c-9.7,0-18-3.3-24.8-9.8
				C8.6,535.2,5.1,527.3,5.1,518c0-9.1,3.4-16.9,10.1-23.3c6.8-6.5,14.9-9.7,24.4-9.7C45.8,485,52.1,486.3,58.7,489.1z"/>
			<path fill="#333333" d="M88.3,486.9h34.7v8.5H96.7v15.6h26.2v8.4H96.7V541h26.2v8.4H88.3V486.9z"/>
			<path fill="#333333" d="M154.4,486.9H168c6.7,0,12.2,1.7,16.5,5c4.2,3.4,6.4,7.6,6.4,12.9c0,4.2-1.4,7.9-4.1,11.1
				c-2.7,3.2-7,5.5-12.8,6.8l18.2,26.8h-9.8l-17.3-25.7H163v25.7h-8.5V486.9z M163,494.5v21.8c12.6,0.3,18.9-3.4,18.9-10.9
				c0-2.7-0.7-4.8-2.2-6.5c-1.5-1.7-3.4-2.8-5.9-3.4C171.3,494.8,167.7,494.5,163,494.5z"/>
			<path fill="#333333" d="M246.8,484.5l29.5,64.9h-9l-7.3-16h-26.5l-7.2,16h-8.9L246.8,484.5z M246.8,504l-10,22.3h20.1L246.8,504z
				"/>
			<path fill="#333333" d="M355.9,484.3l17.1,65.1h-8.4l-10.4-39.8l-17.8,42.2l-17.9-42.5l-10.5,40.1h-8.3l17.1-65.1l19.6,46.6
				L355.9,484.3z"/>
			<path fill="#333333" d="M401.7,486.9h8.4v62.5h-8.4V486.9z"/>
			<path fill="#333333" d="M494.6,489.1v9.7c-6.7-3.3-12.9-5-18.6-5c-7.3,0-13.4,2.3-18.4,7s-7.5,10.5-7.5,17.3
				c0,7,2.5,12.8,7.6,17.4c5.1,4.7,11.5,7,19.1,7c5.6,0,11.5-1.7,17.7-5.2v9.8c-5.7,3-11.8,4.5-18.4,4.5c-9.7,0-18-3.3-24.8-9.8
				c-6.9-6.6-10.3-14.5-10.3-23.7c0-9.1,3.4-16.9,10.1-23.3c6.8-6.5,14.9-9.7,24.4-9.7C481.7,485,488,486.3,494.6,489.1z"/>
			<path fill="#333333" d="M563,493.9l-6.9,5.5c-1.8-1.9-3.5-3.3-5-4.2c-1.5-0.9-3.6-1.4-6.4-1.4c-3.1,0-5.6,0.7-7.5,2.1
				c-1.9,1.4-2.9,3.2-2.9,5.4c0,1.9,0.8,3.6,2.5,5c1.7,1.5,4.5,3,8.5,4.8c4,1.7,7.1,3.3,9.4,4.8c2.2,1.5,4.1,3.1,5.5,4.9
				c1.4,1.8,2.5,3.7,3.2,5.7c0.7,2,1.1,4.1,1.1,6.3c0,5.2-1.9,9.6-5.7,13.3c-3.8,3.7-8.4,5.5-13.7,5.5c-5.2,0-9.9-1.4-13.9-4.3
				c-4-2.9-7.1-7.2-9.3-12.9l8.5-2.4c3.1,7,7.9,10.5,14.3,10.5c3.1,0,5.7-0.9,7.8-2.8c2.1-1.9,3.1-4.2,3.1-7c0-1.7-0.5-3.4-1.6-5.1
				c-1.1-1.7-2.4-3.1-4-4.2s-4.2-2.4-7.7-3.8c-3.5-1.4-6.2-2.7-8.1-3.9c-1.9-1.2-3.5-2.6-4.9-4.3c-1.4-1.6-2.4-3.3-3-4.9
				c-0.6-1.6-1-3.4-1-5.2c0-4.5,1.8-8.3,5.4-11.5c3.6-3.2,8-4.7,13.1-4.7c3.4,0,6.9,0.7,10.4,2.2S560.7,490.9,563,493.9z"/>
			<path fill="#333333" d="M666.4,484.5l29.5,64.9h-9l-7.3-16h-26.5l-7.2,16h-8.9L666.4,484.5z M666.3,504l-10,22.3h20.1L666.3,504z
				"/>
			<path fill="#333333" d="M775.4,484.3l17.1,65.1h-8.4l-10.4-39.8L756,551.9l-17.9-42.5l-10.5,40.1h-8.3l17.1-65.1l19.6,46.6
				L775.4,484.3z"/>
			<path fill="#333333" d="M822.7,486.9h9.9c6.5,0,11.8,1.4,16,4.2c4.1,2.8,6.2,6.4,6.2,10.7c0,5.3-3,9.7-9.1,13.2
				c9.4,3.1,14.1,8.6,14.1,16.4c0,5.4-2.4,9.8-7.3,13.1c-4.9,3.3-11.4,5-19.5,5h-10.3V486.9z M831.1,494.5V513
				c4.7-0.1,8.3-1,10.8-2.7c2.5-1.7,3.8-4.1,3.8-7.2c0-2.6-1.1-4.8-3.4-6.4c-2.3-1.6-5.3-2.4-9.1-2.4
				C832.4,494.4,831.7,494.4,831.1,494.5z M831.1,520.4v21.4h0.7c7.4,0,12.4-1.2,15.1-3.5c2.7-2.4,4-4.8,4-7.2
				c0-3.2-1.5-5.8-4.5-7.8c-3-1.9-7.1-2.9-12.4-2.9H831.1z"/>
			<path fill="#333333" d="M891.1,486.9h34.7v8.5h-26.2v15.6h26.2v8.4h-26.2V541h26.2v8.4h-34.7V486.9z"/>
			<path fill="#333333" d="M957.3,486.9h13.5c6.7,0,12.2,1.7,16.5,5c4.2,3.4,6.4,7.6,6.4,12.9c0,4.2-1.4,7.9-4.1,11.1
				c-2.7,3.2-7,5.5-12.8,6.8l18.2,26.8h-9.8l-17.3-25.7h-1.9v25.7h-8.5V486.9z M965.8,494.5v21.8c12.6,0.3,18.9-3.4,18.9-10.9
				c0-2.7-0.7-4.8-2.2-6.5c-1.5-1.7-3.4-2.8-5.9-3.4C974.1,494.8,970.5,494.5,965.8,494.5z"/>
		</g>
	</g>
</g>
</svg>
